<?xml version="1.0" standalone="no"?>
<svg xmlns:xlink="http://www.w3.org/1999/xlink" fill="#000000" width="46" height="46" viewBox="0 0 24 24" xmlns="http://www.w3.org/2000/svg">

<g data-name="Layer 2" style="fill: rgb(255, 255, 255);">

<g data-name="collapse" style="fill: rgb(255, 255, 255);">

<rect width="24" height="24" transform="rotate(180 12 12)" opacity="0" style="fill: rgb(255, 255, 255);"/>

<path d="M19 9h-2.58l3.29-3.29a1 1 0 1 0-1.42-1.42L15 7.57V5a1 1 0 0 0-1-1 1 1 0 0 0-1 1v5a1 1 0 0 0 1 1h5a1 1 0 0 0 0-2z" style="fill: rgb(255, 255, 255);"/>

<path d="M10 13H5a1 1 0 0 0 0 2h2.57l-3.28 3.29a1 1 0 0 0 0 1.42 1 1 0 0 0 1.42 0L9 16.42V19a1 1 0 0 0 1 1 1 1 0 0 0 1-1v-5a1 1 0 0 0-1-1z" style="fill: rgb(255, 255, 255);"/>

</g>

</g>

</svg>